HIERARCHY
ROOT Hips
{
  OFFSET 263.056 91.6644 -274.608
  CHANNELS 6 Xposition Yposition Zposition Zrotation Xrotation Yrotation
  JOINT LeftUpLeg
  {
    OFFSET 8.64259 1.95398 -2.38835
    CHANNELS 3 Zrotation Xrotation Yrotation
    JOINT LeftLeg
    {
      OFFSET 43.7702 0 0
      CHANNELS 3 Zrotation Xrotation Yrotation
      JOINT LeftFoot
      {
        OFFSET 40.6238 0 0
        CHANNELS 3 Zrotation Xrotation Yrotation
        JOINT LeftToeBase
        {
          OFFSET 12.7242 0 0
          CHANNELS 3 Zrotation Xrotation Yrotation
          End Site
          {
            OFFSET 0 0 0
          }
        }
      }
    }
  }
  JOINT RightUpLeg
  {
    OFFSET -8.2249 1.95398 -2.59336
    CHANNELS 3 Zrotation Xrotation Yrotation
    JOINT RightLeg
    {
      OFFSET 43.5653 0 0
      CHANNELS 3 Zrotation Xrotation Yrotation
      JOINT RightFoot
      {
        OFFSET 40.6238 0 0
        CHANNELS 3 Zrotation Xrotation Yrotation
        JOINT RightToeBase
        {
          OFFSET 12.7242 0 0
          CHANNELS 3 Zrotation Xrotation Yrotation
          End Site
          {
            OFFSET 0 0 0
          }
        }
      }
    }
  }
  JOINT Spine
  {
    OFFSET 0.165834 0.87714 6.61349
    CHANNELS 3 Zrotation Xrotation Yrotation
    JOINT Spine1
    {
      OFFSET 7.38963 1.71661e-005 0
      CHANNELS 3 Zrotation Xrotation Yrotation
      JOINT Spine2
      {
        OFFSET 11.9445 1.14441e-005 0
        CHANNELS 3 Zrotation Xrotation Yrotation
        JOINT Spine3
        {
          OFFSET 14.7254 4.19617e-005 0
          CHANNELS 3 Zrotation Xrotation Yrotation
          JOINT Spine4
          {
            OFFSET 10.9679 0 0
            CHANNELS 3 Zrotation Xrotation Yrotation
            JOINT RightShoulder
            {
              OFFSET 2.46616 -1.6653 3.69651
              CHANNELS 3 Zrotation Xrotation Yrotation
              JOINT RightArm
              {
                OFFSET 13.0012 0 0
                CHANNELS 3 Zrotation Xrotation Yrotation
                JOINT RightForeArm
                {
                  OFFSET 28.7848 1.52588e-005 0
                  CHANNELS 3 Zrotation Xrotation Yrotation
                  JOINT RightHand
                  {
                    OFFSET 26.5688 1.52588e-005 0
                    CHANNELS 3 Zrotation Xrotation Yrotation
                    End Site
                    {
                      OFFSET 0 0 0
                    }
                  }
                }
              }
            }
            JOINT LeftShoulder
            {
              OFFSET 2.38034 -1.29275 -3.7523
              CHANNELS 3 Zrotation Xrotation Yrotation
              JOINT LeftArm
              {
                OFFSET 16.3182 6.10352e-005 0
                CHANNELS 3 Zrotation Xrotation Yrotation
                JOINT LeftForeArm
                {
                  OFFSET 27.0901 0 0
                  CHANNELS 3 Zrotation Xrotation Yrotation
                  JOINT LeftHand
                  {
                    OFFSET 24.5451 1.52588e-005 0
                    CHANNELS 3 Zrotation Xrotation Yrotation
                    End Site
                    {
                      OFFSET 0 0 0
                    }
                  }
                }
              }
            }
            JOINT Neck
            {
              OFFSET 5.0226 -0.0266342 0
              CHANNELS 3 Zrotation Xrotation Yrotation
              JOINT Head
              {
                OFFSET 6.69364 2.86102e-005 0
                CHANNELS 3 Zrotation Xrotation Yrotation
                End Site
                {
                  OFFSET 0 0 0
                }
              }
            }
          }
        }
      }
    }
  }
}
MOTION
Frames:	14
Frame Time:	0.0416667
-46.7936 93.0374 -74.0135 94.4683 -39.4742 89.5015 -170.692 19.4351 87.2186 -46.2603 20.4465 -3.96985 58.2714 1.60617 7.14956 47.8428 20.2275 -3.20609 177.792 33.7738 87.6776 -49.919 15.7837 -0.809835 59.6556 -1.83271 -1.0173 40.5068 0.875458 4.11923 -0.364821 8.4067 -89.233 10.061 -0.377784 1.55413 -1.61087 -0.30904 1.56924 -24.1404 -0.827374 1.3688 -4.12778 -0.82738 1.36879 81.0698 -50.9646 -113.942 32.157 -14.8233 32.5543 -10.8996 -5.08063 -67.4552 -18.6028 -0.867585 0.476967 -97.4931 -41.1193 64.4237 -20.4008 -5.76344 17.7409 16.3104 -2.04936 -94.0842 38.3555 4.62676 8.29497 0.414627 -2.59179 -2.07026 10.3564 -2.24671 0.0335659 
-43.2711 93.8223 -70.5503 94.0269 -38.1332 89.1348 -171.06 17.7802 89.009 -46.1785 25.6306 -3.93227 54.5268 -2.92903 4.24213 50.8499 23.2322 -3.39596 179.374 31.8077 86.1087 -31.8817 12.0094 -0.667134 50.3527 1.53033 1.47616 30.8757 0.0233504 2.38155 -0.532465 8.31329 -89.3068 10.2501 -0.744049 1.44038 -1.42149 -0.67996 1.47172 -23.9539 -1.14253 1.15022 -3.94128 -1.14253 1.15022 81.4486 -51.0847 -113.34 32.3037 -12.1829 35.5807 -8.12023 -3.23727 -67.5716 -17.4087 -0.847176 0.604742 -97.1207 -40.2013 64.6576 -21.2899 -5.36577 16.975 16.2759 -2.77952 -97.9306 37.9313 4.15538 7.16565 -2.30227 -3.0136 -2.48485 11.8089 -2.61847 0.409674 
-39.6846 94.3763 -67.0007 95.2968 -36.1757 89.6314 -171.686 14.4932 90.7893 -45.8292 30.5155 -3.41029 52.0727 -5.58866 2.26847 52.4454 23.5236 -7.79238 -179.879 28.0065 84.8195 -15.7732 6.7311 -1.30869 44.8252 3.87118 3.65142 21.9597 -0.789481 2.9621 -0.746296 8.33803 -89.3455 10.2037 -1.18814 1.4009 -1.46751 -1.12536 1.45182 -24.0037 -1.55424 0.979057 -3.99102 -1.55424 0.97906 82.5083 -50.6127 -111.946 33.2585 -9.9962 38.324 -8.19668 -2.41239 -68.1314 -15.5451 -0.715909 0.216474 -96.9262 -39.402 64.6536 -21.7516 -4.20808 16.8615 17.223 -4.32556 -101.959 36.4247 4.28501 8.01101 -4.21887 -3.57656 -3.44109 12.593 -2.99759 1.28579 
-35.9015 94.4391 -63.1777 95.452 -34.2294 89.8383 -172.111 11.9528 92.9229 -45.5333 36.777 -2.95177 48.8796 -8.64029 0.773364 55.2849 25.6029 -9.58142 -179.696 26.5354 84.1071 -7.30147 7.35844 -1.42334 42.7481 4.85323 4.70044 18.3793 -1.57023 5.97901 -0.925829 8.25259 -89.4103 10.377 -1.57434 1.30909 -1.29373 -1.51522 1.37711 -23.8343 -1.89497 0.775348 -3.82163 -1.89497 0.775336 84.0673 -49.2876 -110.068 34.9917 -7.65331 40.703 -8.04371 -2.76642 -68.077 -14.4275 -0.52662 -0.946805 -96.3777 -38.5 65.1935 -22.0924 -2.55402 16.6114 17.8693 -5.97339 -105.751 34.2079 3.96943 7.87291 -5.22603 -4.27947 -4.32654 13.1103 -3.53239 2.00994 
-32.2341 93.954 -59.4215 96.5546 -31.6843 89.9017 -173.072 9.49145 94.192 -47.3808 40.237 -1.76346 46.8613 -10.5596 -0.949019 54.942 24.6566 -11.604 179.997 26.106 82.96 -7.26916 10.4061 -1.50411 41.8585 4.82315 4.74449 11.5316 -2.22672 5.41131 -1.1929 8.22437 -89.3502 10.438 -2.07835 1.4742 -1.2322 -2.01147 1.56425 -23.7783 -2.42527 0.781205 -3.76561 -2.42529 0.781186 85.6362 -47.6451 -108.208 37.1811 -5.41394 42.9566 -9.86901 -3.02208 -68.5441 -12.4141 -0.500868 -0.642477 -95.1654 -37.1852 66.7044 -22.8975 0.21549 16.2682 17.6061 -7.82811 -109.474 32.7922 3.39263 6.59172 -5.37094 -4.94622 -6.07733 12.6695 -3.88891 3.11876 
-28.7664 92.5601 -55.7788 98.4149 -29.6385 89.964 -174.425 7.42771 94.8571 -51.5724 42.8634 -0.427074 44.7698 -12.3915 -2.31375 55.1808 25.1335 -10.7554 179.093 26.3383 82.1276 -13.6266 8.98869 -1.1595 40.7962 4.93262 4.94553 6.57744 -1.72466 1.22825 -1.40812 8.19575 -89.2467 10.5002 -2.45902 1.71562 -1.16967 -2.38113 1.8222 -23.7203 -2.86087 0.896904 -3.70765 -2.86087 0.896907 86.2501 -46.3148 -107.677 38.3675 -3.10899 45.331 -11.0662 -3.11511 -68.1166 -9.60516 -0.324129 -1.85952 -94.7301 -36.7208 67.2631 -23.0002 2.60319 16.6967 17.6728 -9.8742 -112.866 30.6671 2.82689 5.44441 -6.18461 -5.52571 -6.67037 12.3083 -4.43822 3.35885 
-25.5759 90.6172 -52.3945 100.218 -28.1212 89.3649 -176.218 6.41096 94.4737 -57.4047 42.1695 0.817822 43.636 -13.219 -4.0795 51.1013 22.7649 -5.97668 176.615 28.0421 81.0833 -25.2556 9.20145 0.9338 45.9294 3.64225 3.44295 14.163 -3.24966 11.7753 -1.50122 8.15442 -89.0893 10.586 -2.57132 2.0417 -1.08418 -2.47897 2.15288 -23.6345 -3.06595 1.17418 -3.62181 -3.06595 1.17417 86.4878 -46.7702 -107.157 37.5667 -1.73818 47.1149 -11.0882 -3.19017 -67.1683 -8.05739 -0.25367 -2.47183 -94.8127 -36.9789 67.2219 -22.6738 5.29916 16.9757 18.1534 -11.5146 -114.741 29.8338 3.05371 6.48998 -6.72976 -6.49456 -7.10845 11.4161 -5.39025 3.65374 
-22.3683 88.9966 -49.3795 101.961 -27.5318 91.2701 -177.577 6.47551 95.8152 -64.3445 39.5206 2.05005 43.973 -12.3184 -1.82412 46.5225 20.1958 2.66483 175.579 29.2547 82.9372 -37.5064 8.14887 1.6507 59.2298 0.216872 0.250161 17.9608 -2.36818 10.5551 -1.4354 8.19104 -89.3122 10.5109 -2.54337 1.59403 -1.15865 -2.47076 1.70444 -23.7115 -2.90478 0.755494 -3.69889 -2.90477 0.755495 85.9458 -47.1165 -107.897 36.1619 -1.60118 47.2905 -10.7004 -3.42941 -64.7134 -8.24133 -0.277023 -2.15014 -95.235 -37.958 66.8867 -23.1921 6.17489 16.6214 18.8311 -11.7193 -113.629 27.9098 2.85605 6.48723 -6.47067 -7.62928 -5.25515 10.4923 -6.83667 2.42287 
-19.268 87.7842 -46.6931 102.553 -28.1222 94.3991 -178.223 8.93519 98.2737 -71.5643 28.952 2.89728 47.5108 -8.1583 1.78063 42.4458 15.8736 4.59223 175.92 30.5946 86.9091 -46.1351 10.1785 1.03299 61.7946 -1.28737 -0.699142 26.7224 -1.01334 11.0322 -1.16624 8.31779 -89.7756 10.2465 -2.22112 0.635041 -1.42276 -2.19101 0.732207 -23.9732 -2.30924 -0.0622058 -3.96059 -2.30922 -0.0622119 84.9384 -49.2849 -108.75 32.5042 -3.58607 43.1669 -10.0177 -5.01278 -59.8353 -9.79386 -0.355823 -1.53927 -96.5567 -40.3306 65.6205 -23.3646 5.39909 14.849 19.83 -9.95332 -108.952 27.7656 3.17543 7.7196 -3.40044 -8.88436 -3.52885 8.05568 -8.22901 1.77249 
-16.7171 87.0585 -44.8824 102.755 -28.3513 95.2262 -178.81 12.9418 97.6789 -76.5297 19.2788 3.00501 50.2424 -4.4074 5.97638 41.4486 14.6394 4.17891 175.785 31.3607 88.302 -51.6184 10.1912 0.455107 63.2931 -2.53686 -1.43918 32.2161 -0.114165 9.93726 -1.01715 8.46959 -90.0215 9.93694 -2.03688 0.123438 -1.73243 -2.02951 0.213004 -24.2799 -1.9798 -0.494692 -4.26725 -1.9798 -0.494692 83.8502 -50.9393 -109.841 28.0088 -6.50647 35.0336 -7.22705 -7.77604 -51.2345 -10.9036 -0.491491 -0.293757 -99.137 -42.4644 62.3667 -23.8437 2.04531 14.2292 22.8367 -6.62078 -101.12 26.0828 3.21906 8.63003 -0.906223 -9.92109 -2.18494 6.66984 -9.40808 1.11232 
-14.8229 86.7576 -43.0919 103.989 -29.2581 94.9435 -177.526 16.0714 95.7436 -78.4854 12.0026 2.60283 52.1608 -1.71146 8.44714 42.3446 15.7074 4.27614 175.533 30.2597 88.3141 -54.646 10.5157 -0.0362896 67.1653 -3.82831 -2.0857 32.7524 -0.0542394 10.6184 -0.916117 8.53796 -89.9865 9.80019 -1.81985 0.171817 -1.86951 -1.81054 0.251773 -24.4146 -1.78733 -0.383246 -4.40196 -1.78735 -0.383248 83.3492 -50.365 -110.781 25.9936 -8.07285 27.8259 -5.39277 -10.5399 -43.596 -8.76728 -0.526044 1.18674 -99.8953 -42.9603 61.392 -26.3677 0.376004 14.5027 22.9911 -1.00419 -91.43 27.8658 3.42055 8.57087 -2.52232 -10.3623 -0.724517 7.83773 -10.2006 -0.461006 
-13.061 86.8008 -41.204 103.659 -30.128 94.5334 -175.728 19.8449 94.8172 -77.796 7.62323 2.1618 53.5884 -0.0124549 10.2229 45.0851 18.9079 4.24142 175.599 29.7102 89.0838 -56.0873 11.9593 -0.370808 69.3162 -4.64977 -2.44651 34.1842 0.151845 11.4869 -0.742503 8.45599 -90.0011 9.96325 -1.48021 0.119206 -1.70686 -1.47355 0.184258 -24.2486 -1.4476 -0.331263 -4.23599 -1.4476 -0.331265 83.2818 -51.2707 -110.572 23.5253 -7.37207 22.5999 -6.68863 -12.0765 -42.2197 -5.19897 -0.463645 3.50914 -99.8412 -43.1202 61.5432 -28.9309 0.845421 14.4638 19.163 0.636741 -80.3629 28.9989 3.57176 8.64702 -3.56297 -10.9921 -0.611259 8.11412 -10.8036 0.0826273 
-11.3679 87.0534 -39.6262 102.831 -31.8546 93.6608 -173.105 23.2713 93.5614 -75.1242 4.25514 1.30211 55.1766 1.07454 9.9906 46.848 21.4056 6.00492 176.499 29.7621 89.4934 -57.0221 11.8711 -1.29907 69.7682 -5.15842 -2.68626 36.2726 0.495107 11.034 -0.428543 8.37691 -89.9877 10.1207 -0.848322 0.0956178 -1.54997 -0.843284 0.132854 -24.0872 -0.83783 -0.163773 -4.07457 -0.837831 -0.163775 83.1702 -51.312 -110.723 22.8447 -5.79605 19.4308 -9.03864 -11.7359 -44.848 -3.62071 -0.386062 4.04977 -99.6506 -43.0274 61.8 -30.823 1.87924 14.3705 14.9641 2.88382 -70.8837 26.3631 2.76323 6.69669 -3.15636 -11.6552 -0.428853 7.81481 -11.4535 0.291228 
-9.73791 87.3622 -38.2794 102.82 -32.9776 93.1297 -171.051 25.313 92.5296 -71.2034 4.07033 0.212787 56.8618 2.21126 10.5373 47.7277 22.6477 6.69329 176.96 28.7044 89.4974 -57.4541 11.3614 -1.85307 71.1283 -5.8742 -2.99696 36.8403 0.563819 8.52822 -0.197767 8.39745 -89.9797 10.0791 -0.384737 0.0724692 -1.59181 -0.381182 0.089319 -24.1274 -0.388732 -0.0465161 -4.11478 -0.388717 -0.0465219 82.8429 -50.7899 -111.387 22.6219 -5.25012 17.6379 -10.1225 -10.4746 -48.8185 -6.18155 -0.506732 2.98954 -99.5171 -42.8541 61.9351 -32.1499 3.26771 14.1949 15.2319 6.27998 -61.8407 23.3673 2.54487 7.12769 -2.78744 -12.1269 0.122769 8.40006 -12.005 -0.0317228 
